<mxfile host="app.diagrams.net" modified="2023-04-30T04:01:45.560Z" agent="Mozilla/5.0 (Windows NT 10.0; Win64; x64) AppleWebKit/537.36 (KHTML, like Gecko) Chrome/112.0.0.0 Safari/537.36" etag="wQrGIZlMRHOWxOVGFLv2" version="21.2.1" type="github">
  <diagram id="rnDesP9-kiOVIk-wL_8O" name="Page-1">
    <mxGraphModel dx="1050" dy="541" grid="1" gridSize="10" guides="1" tooltips="1" connect="1" arrows="1" fold="1" page="1" pageScale="1" pageWidth="850" pageHeight="1100" math="0" shadow="0">
      <root>
        <mxCell id="0" />
        <mxCell id="1" parent="0" />
        <mxCell id="3eqNPOFg3Ozrto4ueRBY-7" value="Users" style="shape=table;startSize=30;container=1;collapsible=1;childLayout=tableLayout;fixedRows=1;rowLines=0;fontStyle=1;align=center;resizeLast=1;" parent="1" vertex="1">
          <mxGeometry x="740" y="270" width="180" height="220" as="geometry" />
        </mxCell>
        <mxCell id="3eqNPOFg3Ozrto4ueRBY-8" value="" style="shape=tableRow;horizontal=0;startSize=0;swimlaneHead=0;swimlaneBody=0;fillColor=none;collapsible=0;dropTarget=0;points=[[0,0.5],[1,0.5]];portConstraint=eastwest;top=0;left=0;right=0;bottom=1;" parent="3eqNPOFg3Ozrto4ueRBY-7" vertex="1">
          <mxGeometry y="30" width="180" height="30" as="geometry" />
        </mxCell>
        <mxCell id="3eqNPOFg3Ozrto4ueRBY-9" value="PK" style="shape=partialRectangle;connectable=0;fillColor=none;top=0;left=0;bottom=0;right=0;fontStyle=1;overflow=hidden;" parent="3eqNPOFg3Ozrto4ueRBY-8" vertex="1">
          <mxGeometry width="30" height="30" as="geometry">
            <mxRectangle width="30" height="30" as="alternateBounds" />
          </mxGeometry>
        </mxCell>
        <mxCell id="3eqNPOFg3Ozrto4ueRBY-10" value="id" style="shape=partialRectangle;connectable=0;fillColor=none;top=0;left=0;bottom=0;right=0;align=left;spacingLeft=6;fontStyle=5;overflow=hidden;" parent="3eqNPOFg3Ozrto4ueRBY-8" vertex="1">
          <mxGeometry x="30" width="150" height="30" as="geometry">
            <mxRectangle width="150" height="30" as="alternateBounds" />
          </mxGeometry>
        </mxCell>
        <mxCell id="3eqNPOFg3Ozrto4ueRBY-11" value="" style="shape=tableRow;horizontal=0;startSize=0;swimlaneHead=0;swimlaneBody=0;fillColor=none;collapsible=0;dropTarget=0;points=[[0,0.5],[1,0.5]];portConstraint=eastwest;top=0;left=0;right=0;bottom=0;" parent="3eqNPOFg3Ozrto4ueRBY-7" vertex="1">
          <mxGeometry y="60" width="180" height="30" as="geometry" />
        </mxCell>
        <mxCell id="3eqNPOFg3Ozrto4ueRBY-12" value="" style="shape=partialRectangle;connectable=0;fillColor=none;top=0;left=0;bottom=0;right=0;editable=1;overflow=hidden;" parent="3eqNPOFg3Ozrto4ueRBY-11" vertex="1">
          <mxGeometry width="30" height="30" as="geometry">
            <mxRectangle width="30" height="30" as="alternateBounds" />
          </mxGeometry>
        </mxCell>
        <mxCell id="3eqNPOFg3Ozrto4ueRBY-13" value="name" style="shape=partialRectangle;connectable=0;fillColor=none;top=0;left=0;bottom=0;right=0;align=left;spacingLeft=6;overflow=hidden;" parent="3eqNPOFg3Ozrto4ueRBY-11" vertex="1">
          <mxGeometry x="30" width="150" height="30" as="geometry">
            <mxRectangle width="150" height="30" as="alternateBounds" />
          </mxGeometry>
        </mxCell>
        <mxCell id="3eqNPOFg3Ozrto4ueRBY-14" value="" style="shape=tableRow;horizontal=0;startSize=0;swimlaneHead=0;swimlaneBody=0;fillColor=none;collapsible=0;dropTarget=0;points=[[0,0.5],[1,0.5]];portConstraint=eastwest;top=0;left=0;right=0;bottom=0;" parent="3eqNPOFg3Ozrto4ueRBY-7" vertex="1">
          <mxGeometry y="90" width="180" height="30" as="geometry" />
        </mxCell>
        <mxCell id="3eqNPOFg3Ozrto4ueRBY-15" value="" style="shape=partialRectangle;connectable=0;fillColor=none;top=0;left=0;bottom=0;right=0;editable=1;overflow=hidden;" parent="3eqNPOFg3Ozrto4ueRBY-14" vertex="1">
          <mxGeometry width="30" height="30" as="geometry">
            <mxRectangle width="30" height="30" as="alternateBounds" />
          </mxGeometry>
        </mxCell>
        <mxCell id="3eqNPOFg3Ozrto4ueRBY-16" value="password" style="shape=partialRectangle;connectable=0;fillColor=none;top=0;left=0;bottom=0;right=0;align=left;spacingLeft=6;overflow=hidden;" parent="3eqNPOFg3Ozrto4ueRBY-14" vertex="1">
          <mxGeometry x="30" width="150" height="30" as="geometry">
            <mxRectangle width="150" height="30" as="alternateBounds" />
          </mxGeometry>
        </mxCell>
        <mxCell id="3eqNPOFg3Ozrto4ueRBY-17" value="" style="shape=tableRow;horizontal=0;startSize=0;swimlaneHead=0;swimlaneBody=0;fillColor=none;collapsible=0;dropTarget=0;points=[[0,0.5],[1,0.5]];portConstraint=eastwest;top=0;left=0;right=0;bottom=0;" parent="3eqNPOFg3Ozrto4ueRBY-7" vertex="1">
          <mxGeometry y="120" width="180" height="30" as="geometry" />
        </mxCell>
        <mxCell id="3eqNPOFg3Ozrto4ueRBY-18" value="" style="shape=partialRectangle;connectable=0;fillColor=none;top=0;left=0;bottom=0;right=0;editable=1;overflow=hidden;" parent="3eqNPOFg3Ozrto4ueRBY-17" vertex="1">
          <mxGeometry width="30" height="30" as="geometry">
            <mxRectangle width="30" height="30" as="alternateBounds" />
          </mxGeometry>
        </mxCell>
        <mxCell id="3eqNPOFg3Ozrto4ueRBY-19" value="email" style="shape=partialRectangle;connectable=0;fillColor=none;top=0;left=0;bottom=0;right=0;align=left;spacingLeft=6;overflow=hidden;" parent="3eqNPOFg3Ozrto4ueRBY-17" vertex="1">
          <mxGeometry x="30" width="150" height="30" as="geometry">
            <mxRectangle width="150" height="30" as="alternateBounds" />
          </mxGeometry>
        </mxCell>
        <mxCell id="3eqNPOFg3Ozrto4ueRBY-34" value="" style="endArrow=none;html=1;rounded=0;exitX=0.167;exitY=0.96;exitDx=0;exitDy=0;exitPerimeter=0;" parent="1" source="3eqNPOFg3Ozrto4ueRBY-17" edge="1">
          <mxGeometry relative="1" as="geometry">
            <mxPoint x="710" y="450" as="sourcePoint" />
            <mxPoint x="770" y="490" as="targetPoint" />
            <Array as="points">
              <mxPoint x="770" y="430" />
            </Array>
          </mxGeometry>
        </mxCell>
        <mxCell id="3eqNPOFg3Ozrto4ueRBY-98" value="roles[admin,employee,customer]" style="shape=partialRectangle;connectable=0;fillColor=none;top=0;left=0;bottom=0;right=0;align=left;spacingLeft=3;overflow=hidden;fontSize=9;fontStyle=1" parent="1" vertex="1">
          <mxGeometry x="770" y="420" width="150" height="30" as="geometry">
            <mxRectangle width="150" height="30" as="alternateBounds" />
          </mxGeometry>
        </mxCell>
        <mxCell id="3eqNPOFg3Ozrto4ueRBY-128" value="Cameras" style="shape=table;startSize=30;container=1;collapsible=1;childLayout=tableLayout;fixedRows=1;rowLines=0;fontStyle=1;align=center;resizeLast=1;" parent="1" vertex="1">
          <mxGeometry x="755" y="530" width="180" height="210" as="geometry" />
        </mxCell>
        <mxCell id="3eqNPOFg3Ozrto4ueRBY-129" value="" style="shape=tableRow;horizontal=0;startSize=0;swimlaneHead=0;swimlaneBody=0;fillColor=none;collapsible=0;dropTarget=0;points=[[0,0.5],[1,0.5]];portConstraint=eastwest;top=0;left=0;right=0;bottom=1;" parent="3eqNPOFg3Ozrto4ueRBY-128" vertex="1">
          <mxGeometry y="30" width="180" height="30" as="geometry" />
        </mxCell>
        <mxCell id="3eqNPOFg3Ozrto4ueRBY-130" value="PK" style="shape=partialRectangle;connectable=0;fillColor=none;top=0;left=0;bottom=0;right=0;fontStyle=1;overflow=hidden;" parent="3eqNPOFg3Ozrto4ueRBY-129" vertex="1">
          <mxGeometry width="30" height="30" as="geometry">
            <mxRectangle width="30" height="30" as="alternateBounds" />
          </mxGeometry>
        </mxCell>
        <mxCell id="3eqNPOFg3Ozrto4ueRBY-131" value="id" style="shape=partialRectangle;connectable=0;fillColor=none;top=0;left=0;bottom=0;right=0;align=left;spacingLeft=6;fontStyle=5;overflow=hidden;" parent="3eqNPOFg3Ozrto4ueRBY-129" vertex="1">
          <mxGeometry x="30" width="150" height="30" as="geometry">
            <mxRectangle width="150" height="30" as="alternateBounds" />
          </mxGeometry>
        </mxCell>
        <mxCell id="3eqNPOFg3Ozrto4ueRBY-132" value="" style="shape=tableRow;horizontal=0;startSize=0;swimlaneHead=0;swimlaneBody=0;fillColor=none;collapsible=0;dropTarget=0;points=[[0,0.5],[1,0.5]];portConstraint=eastwest;top=0;left=0;right=0;bottom=0;" parent="3eqNPOFg3Ozrto4ueRBY-128" vertex="1">
          <mxGeometry y="60" width="180" height="30" as="geometry" />
        </mxCell>
        <mxCell id="3eqNPOFg3Ozrto4ueRBY-133" value="" style="shape=partialRectangle;connectable=0;fillColor=none;top=0;left=0;bottom=0;right=0;editable=1;overflow=hidden;" parent="3eqNPOFg3Ozrto4ueRBY-132" vertex="1">
          <mxGeometry width="30" height="30" as="geometry">
            <mxRectangle width="30" height="30" as="alternateBounds" />
          </mxGeometry>
        </mxCell>
        <mxCell id="3eqNPOFg3Ozrto4ueRBY-134" value="name" style="shape=partialRectangle;connectable=0;fillColor=none;top=0;left=0;bottom=0;right=0;align=left;spacingLeft=6;overflow=hidden;" parent="3eqNPOFg3Ozrto4ueRBY-132" vertex="1">
          <mxGeometry x="30" width="150" height="30" as="geometry">
            <mxRectangle width="150" height="30" as="alternateBounds" />
          </mxGeometry>
        </mxCell>
        <mxCell id="3eqNPOFg3Ozrto4ueRBY-135" value="" style="shape=tableRow;horizontal=0;startSize=0;swimlaneHead=0;swimlaneBody=0;fillColor=none;collapsible=0;dropTarget=0;points=[[0,0.5],[1,0.5]];portConstraint=eastwest;top=0;left=0;right=0;bottom=0;" parent="3eqNPOFg3Ozrto4ueRBY-128" vertex="1">
          <mxGeometry y="90" width="180" height="30" as="geometry" />
        </mxCell>
        <mxCell id="3eqNPOFg3Ozrto4ueRBY-136" value="" style="shape=partialRectangle;connectable=0;fillColor=none;top=0;left=0;bottom=0;right=0;editable=1;overflow=hidden;" parent="3eqNPOFg3Ozrto4ueRBY-135" vertex="1">
          <mxGeometry width="30" height="30" as="geometry">
            <mxRectangle width="30" height="30" as="alternateBounds" />
          </mxGeometry>
        </mxCell>
        <mxCell id="3eqNPOFg3Ozrto4ueRBY-137" value="text" style="shape=partialRectangle;connectable=0;fillColor=none;top=0;left=0;bottom=0;right=0;align=left;spacingLeft=6;overflow=hidden;" parent="3eqNPOFg3Ozrto4ueRBY-135" vertex="1">
          <mxGeometry x="30" width="150" height="30" as="geometry">
            <mxRectangle width="150" height="30" as="alternateBounds" />
          </mxGeometry>
        </mxCell>
        <mxCell id="3eqNPOFg3Ozrto4ueRBY-138" value="" style="shape=tableRow;horizontal=0;startSize=0;swimlaneHead=0;swimlaneBody=0;fillColor=none;collapsible=0;dropTarget=0;points=[[0,0.5],[1,0.5]];portConstraint=eastwest;top=0;left=0;right=0;bottom=0;" parent="3eqNPOFg3Ozrto4ueRBY-128" vertex="1">
          <mxGeometry y="120" width="180" height="30" as="geometry" />
        </mxCell>
        <mxCell id="3eqNPOFg3Ozrto4ueRBY-139" value="" style="shape=partialRectangle;connectable=0;fillColor=none;top=0;left=0;bottom=0;right=0;editable=1;overflow=hidden;" parent="3eqNPOFg3Ozrto4ueRBY-138" vertex="1">
          <mxGeometry width="30" height="30" as="geometry">
            <mxRectangle width="30" height="30" as="alternateBounds" />
          </mxGeometry>
        </mxCell>
        <mxCell id="3eqNPOFg3Ozrto4ueRBY-140" value="price" style="shape=partialRectangle;connectable=0;fillColor=none;top=0;left=0;bottom=0;right=0;align=left;spacingLeft=6;overflow=hidden;" parent="3eqNPOFg3Ozrto4ueRBY-138" vertex="1">
          <mxGeometry x="30" width="150" height="30" as="geometry">
            <mxRectangle width="150" height="30" as="alternateBounds" />
          </mxGeometry>
        </mxCell>
        <mxCell id="3eqNPOFg3Ozrto4ueRBY-141" value="" style="endArrow=none;html=1;rounded=0;exitX=0.167;exitY=0.96;exitDx=0;exitDy=0;exitPerimeter=0;" parent="1" source="3eqNPOFg3Ozrto4ueRBY-138" edge="1">
          <mxGeometry relative="1" as="geometry">
            <mxPoint x="725" y="710" as="sourcePoint" />
            <mxPoint x="785" y="740" as="targetPoint" />
            <Array as="points">
              <mxPoint x="785" y="690" />
            </Array>
          </mxGeometry>
        </mxCell>
        <mxCell id="3eqNPOFg3Ozrto4ueRBY-142" value="user" style="shape=partialRectangle;connectable=0;fillColor=none;top=0;left=0;bottom=0;right=0;align=left;spacingLeft=6;overflow=hidden;fontStyle=0" parent="1" vertex="1">
          <mxGeometry x="785" y="710" width="150" height="30" as="geometry">
            <mxRectangle width="150" height="30" as="alternateBounds" />
          </mxGeometry>
        </mxCell>
        <mxCell id="3eqNPOFg3Ozrto4ueRBY-206" value="image" style="shape=partialRectangle;connectable=0;fillColor=none;top=0;left=0;bottom=0;right=0;align=left;spacingLeft=6;overflow=hidden;" parent="1" vertex="1">
          <mxGeometry x="785" y="680" width="150" height="30" as="geometry">
            <mxRectangle width="150" height="30" as="alternateBounds" />
          </mxGeometry>
        </mxCell>
        <mxCell id="3eqNPOFg3Ozrto4ueRBY-228" value="Transactions" style="shape=table;startSize=30;container=1;collapsible=1;childLayout=tableLayout;fixedRows=1;rowLines=0;fontStyle=1;align=center;resizeLast=1;" parent="1" vertex="1">
          <mxGeometry x="1000" y="290" width="180" height="180" as="geometry" />
        </mxCell>
        <mxCell id="3eqNPOFg3Ozrto4ueRBY-229" value="" style="shape=tableRow;horizontal=0;startSize=0;swimlaneHead=0;swimlaneBody=0;fillColor=none;collapsible=0;dropTarget=0;points=[[0,0.5],[1,0.5]];portConstraint=eastwest;top=0;left=0;right=0;bottom=1;" parent="3eqNPOFg3Ozrto4ueRBY-228" vertex="1">
          <mxGeometry y="30" width="180" height="30" as="geometry" />
        </mxCell>
        <mxCell id="3eqNPOFg3Ozrto4ueRBY-230" value="PK" style="shape=partialRectangle;connectable=0;fillColor=none;top=0;left=0;bottom=0;right=0;fontStyle=1;overflow=hidden;" parent="3eqNPOFg3Ozrto4ueRBY-229" vertex="1">
          <mxGeometry width="30" height="30" as="geometry">
            <mxRectangle width="30" height="30" as="alternateBounds" />
          </mxGeometry>
        </mxCell>
        <mxCell id="3eqNPOFg3Ozrto4ueRBY-231" value="id" style="shape=partialRectangle;connectable=0;fillColor=none;top=0;left=0;bottom=0;right=0;align=left;spacingLeft=6;fontStyle=5;overflow=hidden;" parent="3eqNPOFg3Ozrto4ueRBY-229" vertex="1">
          <mxGeometry x="30" width="150" height="30" as="geometry">
            <mxRectangle width="150" height="30" as="alternateBounds" />
          </mxGeometry>
        </mxCell>
        <mxCell id="3eqNPOFg3Ozrto4ueRBY-233" value="date" style="shape=partialRectangle;connectable=0;fillColor=none;top=0;left=0;bottom=0;right=0;align=left;spacingLeft=6;fontStyle=0;overflow=hidden;" parent="1" vertex="1">
          <mxGeometry x="1031" y="350" width="150" height="30" as="geometry">
            <mxRectangle width="150" height="30" as="alternateBounds" />
          </mxGeometry>
        </mxCell>
        <mxCell id="3eqNPOFg3Ozrto4ueRBY-234" value="" style="endArrow=none;html=1;rounded=0;exitX=0.169;exitY=1.002;exitDx=0;exitDy=0;exitPerimeter=0;" parent="1" source="3eqNPOFg3Ozrto4ueRBY-229" edge="1">
          <mxGeometry relative="1" as="geometry">
            <mxPoint x="1035" y="359" as="sourcePoint" />
            <mxPoint x="1030" y="420" as="targetPoint" />
            <Array as="points">
              <mxPoint x="1030" y="370" />
            </Array>
          </mxGeometry>
        </mxCell>
        <mxCell id="3eqNPOFg3Ozrto4ueRBY-236" value="status" style="shape=partialRectangle;connectable=0;fillColor=none;top=0;left=0;bottom=0;right=0;align=left;spacingLeft=6;fontStyle=0;overflow=hidden;" parent="1" vertex="1">
          <mxGeometry x="1030" y="380" width="150" height="30" as="geometry">
            <mxRectangle width="150" height="30" as="alternateBounds" />
          </mxGeometry>
        </mxCell>
        <mxCell id="3eqNPOFg3Ozrto4ueRBY-237" value="FK" style="shape=partialRectangle;connectable=0;fillColor=none;top=0;left=0;bottom=0;right=0;fontStyle=1;overflow=hidden;" parent="1" vertex="1">
          <mxGeometry x="755" y="710" width="30" height="30" as="geometry">
            <mxRectangle width="30" height="30" as="alternateBounds" />
          </mxGeometry>
        </mxCell>
        <mxCell id="3eqNPOFg3Ozrto4ueRBY-238" value="" style="endArrow=none;html=1;rounded=0;exitX=0.167;exitY=0.96;exitDx=0;exitDy=0;exitPerimeter=0;" parent="1" edge="1">
          <mxGeometry relative="1" as="geometry">
            <mxPoint x="1030.06" y="418.79999999999995" as="sourcePoint" />
            <mxPoint x="1030" y="470" as="targetPoint" />
            <Array as="points">
              <mxPoint x="1030" y="430" />
            </Array>
          </mxGeometry>
        </mxCell>
        <mxCell id="3eqNPOFg3Ozrto4ueRBY-239" value="user" style="shape=partialRectangle;connectable=0;fillColor=none;top=0;left=0;bottom=0;right=0;align=left;spacingLeft=6;fontStyle=0;overflow=hidden;" parent="1" vertex="1">
          <mxGeometry x="1031" y="410" width="150" height="30" as="geometry">
            <mxRectangle width="150" height="30" as="alternateBounds" />
          </mxGeometry>
        </mxCell>
        <mxCell id="3eqNPOFg3Ozrto4ueRBY-240" value="FK" style="shape=partialRectangle;connectable=0;fillColor=none;top=0;left=0;bottom=0;right=0;fontStyle=1;overflow=hidden;" parent="1" vertex="1">
          <mxGeometry x="1000" y="410" width="30" height="30" as="geometry">
            <mxRectangle width="30" height="30" as="alternateBounds" />
          </mxGeometry>
        </mxCell>
        <mxCell id="3eqNPOFg3Ozrto4ueRBY-241" value="" style="edgeStyle=entityRelationEdgeStyle;fontSize=12;html=1;endArrow=ERoneToMany;rounded=0;" parent="1" source="3eqNPOFg3Ozrto4ueRBY-14" target="3eqNPOFg3Ozrto4ueRBY-229" edge="1">
          <mxGeometry width="100" height="100" relative="1" as="geometry">
            <mxPoint x="1185" y="375" as="sourcePoint" />
            <mxPoint x="1010" y="510" as="targetPoint" />
          </mxGeometry>
        </mxCell>
        <mxCell id="3eqNPOFg3Ozrto4ueRBY-256" value="" style="edgeStyle=entityRelationEdgeStyle;fontSize=12;html=1;endArrow=ERmany;startArrow=ERmany;rounded=0;entryX=0;entryY=0.5;entryDx=0;entryDy=0;" parent="1" source="3eqNPOFg3Ozrto4ueRBY-132" target="3eqNPOFg3Ozrto4ueRBY-228" edge="1">
          <mxGeometry width="100" height="100" relative="1" as="geometry">
            <mxPoint x="1175" y="550" as="sourcePoint" />
            <mxPoint x="1215" y="550" as="targetPoint" />
          </mxGeometry>
        </mxCell>
        <mxCell id="3eqNPOFg3Ozrto4ueRBY-260" value="image" style="shape=partialRectangle;connectable=0;fillColor=none;top=0;left=0;bottom=0;right=0;align=left;spacingLeft=6;overflow=hidden;" parent="1" vertex="1">
          <mxGeometry x="770" y="450" width="150" height="30" as="geometry">
            <mxRectangle width="150" height="30" as="alternateBounds" />
          </mxGeometry>
        </mxCell>
        <mxCell id="R3rkQFtVbT1nYSnnxUpl-1" value="camera" style="shape=partialRectangle;connectable=0;fillColor=none;top=0;left=0;bottom=0;right=0;align=left;spacingLeft=6;fontStyle=0;overflow=hidden;" parent="1" vertex="1">
          <mxGeometry x="1031" y="440" width="150" height="30" as="geometry">
            <mxRectangle width="150" height="30" as="alternateBounds" />
          </mxGeometry>
        </mxCell>
        <mxCell id="R3rkQFtVbT1nYSnnxUpl-2" value="FK" style="shape=partialRectangle;connectable=0;fillColor=none;top=0;left=0;bottom=0;right=0;fontStyle=1;overflow=hidden;" parent="1" vertex="1">
          <mxGeometry x="1001" y="440" width="30" height="30" as="geometry">
            <mxRectangle width="30" height="30" as="alternateBounds" />
          </mxGeometry>
        </mxCell>
        <mxCell id="R3rkQFtVbT1nYSnnxUpl-3" value="Notes" style="shape=table;startSize=30;container=1;collapsible=1;childLayout=tableLayout;fixedRows=1;rowLines=0;fontStyle=1;align=center;resizeLast=1;" parent="1" vertex="1">
          <mxGeometry x="480" y="290" width="180" height="180" as="geometry" />
        </mxCell>
        <mxCell id="R3rkQFtVbT1nYSnnxUpl-4" value="" style="shape=tableRow;horizontal=0;startSize=0;swimlaneHead=0;swimlaneBody=0;fillColor=none;collapsible=0;dropTarget=0;points=[[0,0.5],[1,0.5]];portConstraint=eastwest;top=0;left=0;right=0;bottom=1;" parent="R3rkQFtVbT1nYSnnxUpl-3" vertex="1">
          <mxGeometry y="30" width="180" height="30" as="geometry" />
        </mxCell>
        <mxCell id="R3rkQFtVbT1nYSnnxUpl-5" value="PK" style="shape=partialRectangle;connectable=0;fillColor=none;top=0;left=0;bottom=0;right=0;fontStyle=1;overflow=hidden;" parent="R3rkQFtVbT1nYSnnxUpl-4" vertex="1">
          <mxGeometry width="30" height="30" as="geometry">
            <mxRectangle width="30" height="30" as="alternateBounds" />
          </mxGeometry>
        </mxCell>
        <mxCell id="R3rkQFtVbT1nYSnnxUpl-6" value="id" style="shape=partialRectangle;connectable=0;fillColor=none;top=0;left=0;bottom=0;right=0;align=left;spacingLeft=6;fontStyle=5;overflow=hidden;" parent="R3rkQFtVbT1nYSnnxUpl-4" vertex="1">
          <mxGeometry x="30" width="150" height="30" as="geometry">
            <mxRectangle width="150" height="30" as="alternateBounds" />
          </mxGeometry>
        </mxCell>
        <mxCell id="R3rkQFtVbT1nYSnnxUpl-7" value="" style="shape=tableRow;horizontal=0;startSize=0;swimlaneHead=0;swimlaneBody=0;fillColor=none;collapsible=0;dropTarget=0;points=[[0,0.5],[1,0.5]];portConstraint=eastwest;top=0;left=0;right=0;bottom=0;" parent="R3rkQFtVbT1nYSnnxUpl-3" vertex="1">
          <mxGeometry y="60" width="180" height="30" as="geometry" />
        </mxCell>
        <mxCell id="R3rkQFtVbT1nYSnnxUpl-8" value="" style="shape=partialRectangle;connectable=0;fillColor=none;top=0;left=0;bottom=0;right=0;editable=1;overflow=hidden;" parent="R3rkQFtVbT1nYSnnxUpl-7" vertex="1">
          <mxGeometry width="30" height="30" as="geometry">
            <mxRectangle width="30" height="30" as="alternateBounds" />
          </mxGeometry>
        </mxCell>
        <mxCell id="R3rkQFtVbT1nYSnnxUpl-9" value="title" style="shape=partialRectangle;connectable=0;fillColor=none;top=0;left=0;bottom=0;right=0;align=left;spacingLeft=6;overflow=hidden;" parent="R3rkQFtVbT1nYSnnxUpl-7" vertex="1">
          <mxGeometry x="30" width="150" height="30" as="geometry">
            <mxRectangle width="150" height="30" as="alternateBounds" />
          </mxGeometry>
        </mxCell>
        <mxCell id="R3rkQFtVbT1nYSnnxUpl-10" value="" style="shape=tableRow;horizontal=0;startSize=0;swimlaneHead=0;swimlaneBody=0;fillColor=none;collapsible=0;dropTarget=0;points=[[0,0.5],[1,0.5]];portConstraint=eastwest;top=0;left=0;right=0;bottom=0;" parent="R3rkQFtVbT1nYSnnxUpl-3" vertex="1">
          <mxGeometry y="90" width="180" height="30" as="geometry" />
        </mxCell>
        <mxCell id="R3rkQFtVbT1nYSnnxUpl-11" value="" style="shape=partialRectangle;connectable=0;fillColor=none;top=0;left=0;bottom=0;right=0;editable=1;overflow=hidden;" parent="R3rkQFtVbT1nYSnnxUpl-10" vertex="1">
          <mxGeometry width="30" height="30" as="geometry">
            <mxRectangle width="30" height="30" as="alternateBounds" />
          </mxGeometry>
        </mxCell>
        <mxCell id="R3rkQFtVbT1nYSnnxUpl-12" value="text" style="shape=partialRectangle;connectable=0;fillColor=none;top=0;left=0;bottom=0;right=0;align=left;spacingLeft=6;overflow=hidden;" parent="R3rkQFtVbT1nYSnnxUpl-10" vertex="1">
          <mxGeometry x="30" width="150" height="30" as="geometry">
            <mxRectangle width="150" height="30" as="alternateBounds" />
          </mxGeometry>
        </mxCell>
        <mxCell id="R3rkQFtVbT1nYSnnxUpl-13" value="" style="shape=tableRow;horizontal=0;startSize=0;swimlaneHead=0;swimlaneBody=0;fillColor=none;collapsible=0;dropTarget=0;points=[[0,0.5],[1,0.5]];portConstraint=eastwest;top=0;left=0;right=0;bottom=0;" parent="R3rkQFtVbT1nYSnnxUpl-3" vertex="1">
          <mxGeometry y="120" width="180" height="30" as="geometry" />
        </mxCell>
        <mxCell id="R3rkQFtVbT1nYSnnxUpl-14" value="" style="shape=partialRectangle;connectable=0;fillColor=none;top=0;left=0;bottom=0;right=0;editable=1;overflow=hidden;" parent="R3rkQFtVbT1nYSnnxUpl-13" vertex="1">
          <mxGeometry width="30" height="30" as="geometry">
            <mxRectangle width="30" height="30" as="alternateBounds" />
          </mxGeometry>
        </mxCell>
        <mxCell id="R3rkQFtVbT1nYSnnxUpl-15" value="completed" style="shape=partialRectangle;connectable=0;fillColor=none;top=0;left=0;bottom=0;right=0;align=left;spacingLeft=6;overflow=hidden;" parent="R3rkQFtVbT1nYSnnxUpl-13" vertex="1">
          <mxGeometry x="30" width="150" height="30" as="geometry">
            <mxRectangle width="150" height="30" as="alternateBounds" />
          </mxGeometry>
        </mxCell>
        <mxCell id="R3rkQFtVbT1nYSnnxUpl-16" value="" style="endArrow=none;html=1;rounded=0;exitX=0.167;exitY=0.96;exitDx=0;exitDy=0;exitPerimeter=0;" parent="1" source="R3rkQFtVbT1nYSnnxUpl-13" edge="1">
          <mxGeometry relative="1" as="geometry">
            <mxPoint x="450" y="470" as="sourcePoint" />
            <mxPoint x="510" y="470" as="targetPoint" />
            <Array as="points">
              <mxPoint x="510" y="450" />
            </Array>
          </mxGeometry>
        </mxCell>
        <mxCell id="R3rkQFtVbT1nYSnnxUpl-17" value="user" style="shape=partialRectangle;connectable=0;fillColor=none;top=0;left=0;bottom=0;right=0;align=left;spacingLeft=6;overflow=hidden;" parent="1" vertex="1">
          <mxGeometry x="510" y="440" width="150" height="30" as="geometry">
            <mxRectangle width="150" height="30" as="alternateBounds" />
          </mxGeometry>
        </mxCell>
        <mxCell id="R3rkQFtVbT1nYSnnxUpl-19" value="" style="fontSize=12;html=1;endArrow=ERoneToMany;rounded=0;entryX=0.5;entryY=0;entryDx=0;entryDy=0;" parent="1" target="3eqNPOFg3Ozrto4ueRBY-128" edge="1">
          <mxGeometry width="100" height="100" relative="1" as="geometry">
            <mxPoint x="845" y="490" as="sourcePoint" />
            <mxPoint x="730" y="570" as="targetPoint" />
          </mxGeometry>
        </mxCell>
        <mxCell id="R3rkQFtVbT1nYSnnxUpl-22" value="FK" style="shape=partialRectangle;connectable=0;fillColor=none;top=0;left=0;bottom=0;right=0;fontStyle=1;overflow=hidden;" parent="1" vertex="1">
          <mxGeometry x="480" y="440" width="30" height="30" as="geometry">
            <mxRectangle width="30" height="30" as="alternateBounds" />
          </mxGeometry>
        </mxCell>
        <mxCell id="R3rkQFtVbT1nYSnnxUpl-23" value="" style="fontSize=12;html=1;endArrow=ERoneToMany;rounded=0;exitX=-0.009;exitY=0.744;exitDx=0;exitDy=0;entryX=1;entryY=0.5;entryDx=0;entryDy=0;exitPerimeter=0;edgeStyle=entityRelationEdgeStyle;" parent="1" source="3eqNPOFg3Ozrto4ueRBY-17" target="R3rkQFtVbT1nYSnnxUpl-10" edge="1">
          <mxGeometry width="100" height="100" relative="1" as="geometry">
            <mxPoint x="840" y="500" as="sourcePoint" />
            <mxPoint x="840" y="540" as="targetPoint" />
          </mxGeometry>
        </mxCell>
        <mxCell id="R3rkQFtVbT1nYSnnxUpl-24" value="Comments" style="shape=table;startSize=30;container=1;collapsible=1;childLayout=tableLayout;fixedRows=1;rowLines=0;fontStyle=1;align=center;resizeLast=1;" parent="1" vertex="1">
          <mxGeometry x="1001" y="530" width="180" height="180" as="geometry" />
        </mxCell>
        <mxCell id="R3rkQFtVbT1nYSnnxUpl-25" value="" style="shape=tableRow;horizontal=0;startSize=0;swimlaneHead=0;swimlaneBody=0;fillColor=none;collapsible=0;dropTarget=0;points=[[0,0.5],[1,0.5]];portConstraint=eastwest;top=0;left=0;right=0;bottom=1;" parent="R3rkQFtVbT1nYSnnxUpl-24" vertex="1">
          <mxGeometry y="30" width="180" height="30" as="geometry" />
        </mxCell>
        <mxCell id="R3rkQFtVbT1nYSnnxUpl-26" value="PK" style="shape=partialRectangle;connectable=0;fillColor=none;top=0;left=0;bottom=0;right=0;fontStyle=1;overflow=hidden;" parent="R3rkQFtVbT1nYSnnxUpl-25" vertex="1">
          <mxGeometry width="30" height="30" as="geometry">
            <mxRectangle width="30" height="30" as="alternateBounds" />
          </mxGeometry>
        </mxCell>
        <mxCell id="R3rkQFtVbT1nYSnnxUpl-27" value="id" style="shape=partialRectangle;connectable=0;fillColor=none;top=0;left=0;bottom=0;right=0;align=left;spacingLeft=6;fontStyle=5;overflow=hidden;" parent="R3rkQFtVbT1nYSnnxUpl-25" vertex="1">
          <mxGeometry x="30" width="150" height="30" as="geometry">
            <mxRectangle width="150" height="30" as="alternateBounds" />
          </mxGeometry>
        </mxCell>
        <mxCell id="R3rkQFtVbT1nYSnnxUpl-28" value="ratings" style="shape=partialRectangle;connectable=0;fillColor=none;top=0;left=0;bottom=0;right=0;align=left;spacingLeft=6;fontStyle=0;overflow=hidden;" parent="1" vertex="1">
          <mxGeometry x="1032" y="590" width="150" height="30" as="geometry">
            <mxRectangle width="150" height="30" as="alternateBounds" />
          </mxGeometry>
        </mxCell>
        <mxCell id="R3rkQFtVbT1nYSnnxUpl-29" value="" style="endArrow=none;html=1;rounded=0;exitX=0.169;exitY=1.002;exitDx=0;exitDy=0;exitPerimeter=0;" parent="1" source="R3rkQFtVbT1nYSnnxUpl-25" edge="1">
          <mxGeometry relative="1" as="geometry">
            <mxPoint x="1036" y="599" as="sourcePoint" />
            <mxPoint x="1031" y="660" as="targetPoint" />
            <Array as="points">
              <mxPoint x="1031" y="610" />
            </Array>
          </mxGeometry>
        </mxCell>
        <mxCell id="R3rkQFtVbT1nYSnnxUpl-30" value="text" style="shape=partialRectangle;connectable=0;fillColor=none;top=0;left=0;bottom=0;right=0;align=left;spacingLeft=6;fontStyle=0;overflow=hidden;" parent="1" vertex="1">
          <mxGeometry x="1031" y="620" width="150" height="30" as="geometry">
            <mxRectangle width="150" height="30" as="alternateBounds" />
          </mxGeometry>
        </mxCell>
        <mxCell id="R3rkQFtVbT1nYSnnxUpl-31" value="" style="endArrow=none;html=1;rounded=0;" parent="1" edge="1">
          <mxGeometry relative="1" as="geometry">
            <mxPoint x="1031" y="660" as="sourcePoint" />
            <mxPoint x="1031" y="710" as="targetPoint" />
            <Array as="points">
              <mxPoint x="1031" y="670" />
            </Array>
          </mxGeometry>
        </mxCell>
        <mxCell id="R3rkQFtVbT1nYSnnxUpl-32" value="transaction" style="shape=partialRectangle;connectable=0;fillColor=none;top=0;left=0;bottom=0;right=0;align=left;spacingLeft=6;fontStyle=0;overflow=hidden;" parent="1" vertex="1">
          <mxGeometry x="1032" y="680" width="150" height="30" as="geometry">
            <mxRectangle width="150" height="30" as="alternateBounds" />
          </mxGeometry>
        </mxCell>
        <mxCell id="R3rkQFtVbT1nYSnnxUpl-33" value="FK" style="shape=partialRectangle;connectable=0;fillColor=none;top=0;left=0;bottom=0;right=0;fontStyle=1;overflow=hidden;" parent="1" vertex="1">
          <mxGeometry x="1001" y="680" width="29" height="30" as="geometry">
            <mxRectangle width="30" height="30" as="alternateBounds" />
          </mxGeometry>
        </mxCell>
        <mxCell id="R3rkQFtVbT1nYSnnxUpl-36" value="" style="fontSize=12;html=1;endArrow=ERmandOne;startArrow=ERmandOne;rounded=0;exitX=0.5;exitY=0;exitDx=0;exitDy=0;" parent="1" source="R3rkQFtVbT1nYSnnxUpl-24" edge="1">
          <mxGeometry width="100" height="100" relative="1" as="geometry">
            <mxPoint x="880" y="580" as="sourcePoint" />
            <mxPoint x="1090" y="470" as="targetPoint" />
          </mxGeometry>
        </mxCell>
        <mxCell id="R3rkQFtVbT1nYSnnxUpl-38" value="&lt;div style=&quot;text-align: justify; line-height: 150%;&quot;&gt;&lt;span style=&quot;background-color: initial;&quot;&gt;&lt;font style=&quot;font-size: 12px;&quot;&gt;Comment ( With Profanity)&lt;/font&gt;&lt;/span&gt;&lt;/div&gt;&lt;div style=&quot;text-align: justify; line-height: 150%;&quot;&gt;&lt;span style=&quot;background-color: initial;&quot;&gt;&lt;font style=&quot;font-size: 12px;&quot;&gt;Upload Multiple Photos&lt;/font&gt;&lt;/span&gt;&lt;/div&gt;&lt;font style=&quot;font-size: 12px;&quot;&gt;&lt;span style=&quot;background-color: initial;&quot;&gt;&lt;div style=&quot;text-align: justify; line-height: 150%;&quot;&gt;&lt;span style=&quot;background-color: initial;&quot;&gt;Login Via Google Or Facebook&lt;/span&gt;&lt;/div&gt;&lt;/span&gt;&lt;span style=&quot;background-color: initial;&quot;&gt;&lt;div style=&quot;text-align: justify; line-height: 150%;&quot;&gt;&lt;span style=&quot;background-color: initial;&quot;&gt;Pagination &amp;amp;(Infinite Scroll React [ If necessary ] )&lt;/span&gt;&lt;/div&gt;&lt;/span&gt;&lt;span style=&quot;background-color: initial;&quot;&gt;&lt;div style=&quot;text-align: justify; line-height: 150%;&quot;&gt;&lt;span style=&quot;background-color: initial;&quot;&gt;Search, Filter, And Sort&lt;/span&gt;&lt;/div&gt;&lt;/span&gt;&lt;span style=&quot;background-color: initial;&quot;&gt;&lt;div style=&quot;text-align: justify; line-height: 150%;&quot;&gt;&lt;span style=&quot;background-color: initial;&quot;&gt;Forgot &amp;amp; Reset Password Via MailTrap&lt;/span&gt;&lt;br&gt;&lt;/div&gt;&lt;/span&gt;&lt;span style=&quot;background-color: initial;&quot;&gt;&lt;div style=&quot;text-align: justify; line-height: 150%;&quot;&gt;&lt;span style=&quot;background-color: initial;&quot;&gt;Add Toastify For Success &amp;amp; Error Messages&lt;/span&gt;&lt;/div&gt;&lt;/span&gt;&lt;span style=&quot;background-color: initial;&quot;&gt;&lt;div style=&quot;text-align: justify; line-height: 150%;&quot;&gt;&lt;span style=&quot;background-color: initial;&quot;&gt;Optional Functionality ( Restore, Soft &amp;amp; Hard Delete )&lt;/span&gt;&lt;/div&gt;&lt;div style=&quot;text-align: justify; line-height: 150%;&quot;&gt;&lt;div style=&quot;border-color: var(--border-color); text-align: justify; line-height: 18px;&quot;&gt;&lt;div&gt;&lt;/div&gt;&lt;span style=&quot;border-color: var(--border-color); background-color: initial;&quot;&gt;Optional Tables ( Carts &amp;amp; Accessories )&lt;/span&gt;&lt;/div&gt;&lt;span style=&quot;border-color: var(--border-color); text-align: left; background-color: initial;&quot;&gt;&lt;/span&gt;&lt;span style=&quot;border-color: var(--border-color); text-align: left; background-color: initial;&quot;&gt;&lt;/span&gt;&lt;/div&gt;&lt;/span&gt;&lt;/font&gt;" style="shape=note;size=69;whiteSpace=wrap;html=1;align=left;" parent="1" vertex="1">
          <mxGeometry x="440" y="510" width="290" height="230" as="geometry" />
        </mxCell>
        <mxCell id="zCvcQ2COCySv8-SrBFWI-1" value="transService" style="shape=partialRectangle;connectable=0;fillColor=none;top=0;left=0;bottom=0;right=0;align=left;spacingLeft=6;fontStyle=0;overflow=hidden;" vertex="1" parent="1">
          <mxGeometry x="1030" y="650" width="150" height="30" as="geometry">
            <mxRectangle width="150" height="30" as="alternateBounds" />
          </mxGeometry>
        </mxCell>
      </root>
    </mxGraphModel>
  </diagram>
</mxfile>
